<?xml version="1.0" standalone="no"?>
<!DOCTYPE svg PUBLIC "-//W3C//DTD SVG 20010904//EN"
 "http://www.w3.org/TR/2001/REC-SVG-20010904/DTD/svg10.dtd">
<svg version="1.0" xmlns="http://www.w3.org/2000/svg"
 width="640.000000pt" height="640.000000pt" viewBox="0 0 640.000000 640.000000"
 preserveAspectRatio="xMidYMid meet">
<metadata>
Created by potrace 1.11, written by Peter Selinger 2001-2013
</metadata>
<g transform="translate(0.000000,640.000000) scale(0.100000,-0.100000)"
fill="#000000" stroke="none">
<path d="M3187 6043 c-1 0 -60 -4 -132 -7 -71 -4 -141 -8 -155 -10 -14 -3 -52
-7 -85 -11 -32 -4 -62 -8 -65 -10 -3 -2 -30 -6 -60 -10 -30 -4 -58 -9 -61 -11
-3 -2 -19 -5 -35 -8 -101 -18 -385 -107 -474 -148 -48 -22 -92 -41 -100 -42
-20 -5 -223 -114 -300 -162 -246 -151 -409 -287 -650 -543 -82 -88 -214 -269
-299 -411 -34 -58 -67 -112 -72 -120 -19 -31 -83 -168 -124 -266 -62 -146
-121 -333 -151 -479 -2 -11 -6 -31 -9 -45 -11 -52 -25 -133 -30 -170 -17 -137
-20 -204 -20 -390 0 -190 6 -296 19 -380 4 -23 12 -75 22 -143 10 -74 89 -364
114 -422 4 -11 25 -63 45 -115 84 -215 217 -452 367 -651 156 -207 345 -396
554 -555 62 -46 116 -84 122 -84 6 0 12 -4 14 -9 5 -15 226 -144 335 -197 86
-41 285 -124 297 -124 3 0 17 -5 33 -12 15 -6 33 -12 38 -14 6 -1 58 -16 117
-32 58 -17 119 -33 135 -36 15 -2 37 -7 48 -9 33 -8 207 -36 255 -42 249 -30
603 -17 840 32 41 8 84 17 95 18 11 1 20 3 20 5 0 1 14 4 30 6 17 3 41 8 55
13 14 5 45 14 70 21 82 23 214 69 289 100 134 55 352 166 359 183 2 4 8 7 14
7 18 0 241 152 315 215 7 5 27 21 44 35 84 67 221 200 317 307 348 389 607
934 678 1428 3 22 7 51 10 65 22 133 31 380 19 570 -8 144 -13 182 -42 340 -8
47 -17 95 -19 107 -7 39 -86 308 -93 318 -4 6 -14 30 -21 55 -7 25 -17 50 -20
55 -4 6 -14 29 -23 53 -47 120 -160 330 -248 462 -96 142 -267 353 -354 434
-16 15 -57 54 -91 86 -34 31 -108 94 -165 139 -57 45 -110 86 -116 92 -7 5
-43 29 -80 52 -38 23 -69 45 -71 49 -2 5 -8 8 -13 8 -5 0 -28 12 -51 26 -162
103 -472 230 -713 295 -85 22 -86 22 -155 35 -25 4 -47 8 -50 9 -3 1 -27 5
-55 9 -27 4 -61 10 -75 12 -57 11 -387 33 -393 27z"/>
</g>
</svg>
